<svg width="31" height="433" viewBox="0 0 31 433" fill="none" xmlns="http://www.w3.org/2000/svg">
<line x1="15.5" y1="252" x2="15.5" y2="433" stroke="white"/>
<circle cx="15.5" cy="216.5" r="15" stroke="white"/>
<path d="M21.75 212.661C21.75 211.538 20.7591 210.547 19.636 210.547H11.114C9.99093 210.547 9 211.538 9 212.661V221.183C9 222.306 9.99093 223.297 11.114 223.297H15.408V218.474H13.8225V216.36H15.408V215.502C15.408 214.048 16.465 212.793 17.7863 212.793H19.5039V214.907H17.7863C17.5881 214.907 17.3899 215.105 17.3899 215.502V216.36H19.5039V218.474H17.3899V223.297H19.636C20.7591 223.297 21.75 222.306 21.75 221.183V212.661Z" fill="white"/>
<line x1="15.5" y1="2.18561e-08" x2="15.5" y2="181" stroke="white"/>
</svg>
