<svg width="157" height="27" viewBox="0 0 157 27" fill="none" xmlns="http://www.w3.org/2000/svg">
<path d="M80.2874 18.2666H72.4658V14.8396H80.2874V18.2666Z" fill="#00A3FF"/>
<path d="M94.2745 4.16479H90.0439V26.4326H86.2233V4.16479H81.9928V0.770508H94.2745V4.16479Z" fill="#00A3FF"/>
<path d="M109.377 26.4326H105.376L101.145 14.5116C101.145 14.5116 101.145 13.7409 101.145 12.1996H104.916V4.06641H100.079V26.4326H96.2422V0.770508H106.425C107.966 0.770508 108.737 1.55759 108.737 3.13175V12.4619C108.737 13.5442 108.371 14.2438 107.638 14.5608C107.245 14.7248 106.414 14.8068 105.146 14.8068L109.377 26.4326Z" fill="#00A3FF"/>
<path d="M124.561 24.0878C124.561 25.651 123.774 26.4326 122.199 26.4326H114.05C112.498 26.4326 111.721 25.651 111.721 24.0878V0.770508H115.558V23.1367H120.724V0.770508H124.561V24.0878Z" fill="#00A3FF"/>
<path d="M140.286 24.0878C140.286 25.651 139.504 26.4326 137.941 26.4326H129.939C128.42 26.4326 127.66 25.651 127.66 24.0878V3.13175C127.66 1.55759 128.42 0.770508 129.939 0.770508H137.941C139.504 0.770508 140.286 1.55759 140.286 3.13175V9.13323H136.465V4.06641H131.497V23.1367H136.465V17.7419H140.286V24.0878Z" fill="#00A3FF"/>
<path d="M156.241 26.4326H152.01L147.14 14.9871V26.4326H143.303V0.770508H147.14V11.6257L151.403 0.770508H155.601V0.95088L150.387 13.1342L156.241 26.4326Z" fill="#00A3FF"/>
<path d="M12.6261 24.0883C12.6261 25.6516 11.8445 26.4332 10.2812 26.4332H2.27925C0.759751 26.4332 0 25.6516 0 24.0883V3.13232C0 1.55816 0.759751 0.771076 2.27925 0.771076H10.2812C11.8445 0.771076 12.6261 1.55816 12.6261 3.13232V9.1338H8.80546V4.06697H3.83702V23.1373H8.80546V17.7425H12.6261V24.0883Z" fill="white"/>
<path d="M25.7277 26.4332H15.6432V0.771076H19.4802V23.0061H25.7277V26.4332Z" fill="white"/>
<path d="M38.6489 26.4332H28.0069V0.771076H38.5505V4.16536H31.844V11.659H37.6159V14.9877H31.844V23.0389H38.6489V26.4332Z" fill="white"/>
<path d="M54.2921 26.4332H50.4879L49.7172 21.5631H44.9128L44.1421 26.4332H40.3543V26.3676L45.3227 0.738281H49.3565L54.2921 26.4332ZM49.1761 18.2672L47.3068 6.69058L45.4211 18.2672H49.1761Z" fill="white"/>
<path d="M69.4434 26.4332H66.0819L59.9329 10.2816C60.0969 11.0687 60.1788 11.6863 60.1788 12.1345V26.4332H56.4402V0.771076H59.8017L65.9508 16.5947C65.7868 15.8076 65.7048 15.1899 65.7048 14.7417V0.771076H69.4434V26.4332Z" fill="white"/>
</svg>
