<svg width="31" height="31" viewBox="0 0 31 31" fill="none" xmlns="http://www.w3.org/2000/svg">
<circle cx="15.5" cy="15.5" r="15" stroke="white"/>
<path d="M21.75 11.6609C21.75 10.5378 20.7591 9.54688 19.636 9.54688H11.114C9.99093 9.54688 9 10.5378 9 11.6609V20.1829C9 21.3059 9.99093 22.2969 11.114 22.2969H15.408V17.4743H13.8225V15.3603H15.408V14.5015C15.408 13.0482 16.465 11.793 17.7863 11.793H19.5039V13.907H17.7863C17.5881 13.907 17.3899 14.1052 17.3899 14.5015V15.3603H19.5039V17.4743H17.3899V22.2969H19.636C20.7591 22.2969 21.75 21.3059 21.75 20.1829V11.6609Z" fill="white"/>
</svg>
