<svg width="36" height="37" viewBox="0 0 36 37" fill="none" xmlns="http://www.w3.org/2000/svg">
<rect y="0.546875" width="36" height="36" fill="white"/>
<path d="M24.75 14.6609C24.75 13.5378 23.7591 12.5469 22.636 12.5469H14.114C12.9909 12.5469 12 13.5378 12 14.6609V23.1829C12 24.3059 12.9909 25.2969 14.114 25.2969H18.408V20.4743H16.8225V18.3603H18.408V17.5015C18.408 16.0482 19.465 14.793 20.7863 14.793H22.5039V16.907H20.7863C20.5881 16.907 20.3899 17.1052 20.3899 17.5015V18.3603H22.5039V20.4743H20.3899V25.2969H22.636C23.7591 25.2969 24.75 24.3059 24.75 23.1829V14.6609Z" fill="#00A3FF"/>
</svg>
