<svg width="9" height="9" viewBox="0 0 9 9" fill="none" xmlns="http://www.w3.org/2000/svg">
<path fill-rule="evenodd" clip-rule="evenodd" d="M1.84187 0.292893C1.45135 -0.0976311 0.818183 -0.0976311 0.427659 0.292893C0.0371345 0.683417 0.0371345 1.31658 0.427659 1.70711L3.06325 4.3427L0.427659 6.97829C0.0371347 7.36881 0.0371347 8.00198 0.427659 8.3925C0.818183 8.78302 1.45135 8.78302 1.84187 8.3925L4.47746 5.75691L7.11305 8.3925C7.50358 8.78302 8.13674 8.78302 8.52727 8.3925C8.91779 8.00198 8.91779 7.36881 8.52727 6.97829L5.89168 4.3427L8.52727 1.70711C8.91779 1.31658 8.91779 0.683417 8.52727 0.292893C8.13674 -0.0976311 7.50358 -0.0976311 7.11305 0.292893L4.47746 2.92848L1.84187 0.292893Z" fill="#A3A3A4"/>
</svg>
