<svg width="1109" height="2" viewBox="0 0 1109 2" fill="none" xmlns="http://www.w3.org/2000/svg">
<rect opacity="0.5" width="1" height="1" transform="matrix(1 -8.74228e-08 -8.74228e-08 -1 64 1.54688)" fill="white"/>
<rect opacity="0.5" width="1" height="1" transform="matrix(1 -8.74228e-08 -8.74228e-08 -1 130 1.54688)" fill="white"/>
<rect opacity="0.5" width="1" height="1" transform="matrix(1 -8.74228e-08 -8.74228e-08 -1 24 1.54688)" fill="white"/>
<rect opacity="0.5" width="1" height="1" transform="matrix(1 -8.74228e-08 -8.74228e-08 -1 90 1.54688)" fill="white"/>
<rect opacity="0.5" width="1" height="1" transform="matrix(1 -8.74228e-08 -8.74228e-08 -1 44 1.54688)" fill="white"/>
<rect opacity="0.5" width="1" height="1" transform="matrix(1 -8.74228e-08 -8.74228e-08 -1 110 1.54688)" fill="white"/>
<rect opacity="0.5" width="1" height="1" transform="matrix(1 -8.74228e-08 -8.74228e-08 -1 4 1.54688)" fill="white"/>
<rect opacity="0.5" width="1" height="1" transform="matrix(1 -8.74228e-08 -8.74228e-08 -1 70 1.54688)" fill="white"/>
<rect opacity="0.5" width="1" height="1" transform="matrix(1 -8.74228e-08 -8.74228e-08 -1 62 1.54688)" fill="white"/>
<rect opacity="0.5" width="1" height="1" transform="matrix(1 -8.74228e-08 -8.74228e-08 -1 128 1.54688)" fill="white"/>
<rect opacity="0.5" width="1" height="1" transform="matrix(1 -8.74228e-08 -8.74228e-08 -1 22 1.54688)" fill="white"/>
<rect opacity="0.5" width="1" height="1" transform="matrix(1 -8.74228e-08 -8.74228e-08 -1 88 1.54688)" fill="white"/>
<rect opacity="0.5" width="1" height="1" transform="matrix(1 -8.74228e-08 -8.74228e-08 -1 42 1.54688)" fill="white"/>
<rect opacity="0.5" width="1" height="1" transform="matrix(1 -8.74228e-08 -8.74228e-08 -1 108 1.54688)" fill="white"/>
<rect opacity="0.5" width="1" height="1" transform="matrix(1 -8.74228e-08 -8.74228e-08 -1 2 1.54688)" fill="white"/>
<rect opacity="0.5" width="1" height="1" transform="matrix(1 -8.74228e-08 -8.74228e-08 -1 68 1.54688)" fill="white"/>
<rect opacity="0.5" width="1" height="1" transform="matrix(1 -8.74228e-08 -8.74228e-08 -1 60 1.54688)" fill="white"/>
<rect opacity="0.5" width="1" height="1" transform="matrix(1 -8.74228e-08 -8.74228e-08 -1 126 1.54688)" fill="white"/>
<rect opacity="0.5" width="1" height="1" transform="matrix(1 -8.74228e-08 -8.74228e-08 -1 20 1.54688)" fill="white"/>
<rect opacity="0.5" width="1" height="1" transform="matrix(1 -8.74228e-08 -8.74228e-08 -1 86 1.54688)" fill="white"/>
<rect opacity="0.5" width="1" height="1" transform="matrix(1 -8.74228e-08 -8.74228e-08 -1 40 1.54688)" fill="white"/>
<rect opacity="0.5" width="1" height="1" transform="matrix(1 -8.74228e-08 -8.74228e-08 -1 106 1.54688)" fill="white"/>
<rect opacity="0.5" width="1" height="1" transform="matrix(1 -8.74228e-08 -8.74228e-08 -1 0 1.54688)" fill="white"/>
<rect opacity="0.5" width="1" height="1" transform="matrix(1 -8.74228e-08 -8.74228e-08 -1 66 1.54688)" fill="white"/>
<rect opacity="0.5" width="1" height="1" transform="matrix(1 -8.74228e-08 -8.74228e-08 -1 58 1.54688)" fill="white"/>
<rect opacity="0.5" width="1" height="1" transform="matrix(1 -8.74228e-08 -8.74228e-08 -1 124 1.54688)" fill="white"/>
<rect opacity="0.5" width="1" height="1" transform="matrix(1 -8.74228e-08 -8.74228e-08 -1 18 1.54688)" fill="white"/>
<rect opacity="0.5" width="1" height="1" transform="matrix(1 -8.74228e-08 -8.74228e-08 -1 84 1.54688)" fill="white"/>
<rect opacity="0.5" width="1" height="1" transform="matrix(1 -8.74228e-08 -8.74228e-08 -1 38 1.54688)" fill="white"/>
<rect opacity="0.5" width="1" height="1" transform="matrix(1 -8.74228e-08 -8.74228e-08 -1 104 1.54688)" fill="white"/>
<rect opacity="0.5" width="1" height="1" transform="matrix(1 -8.74228e-08 -8.74228e-08 -1 56 1.54688)" fill="white"/>
<rect opacity="0.5" width="1" height="1" transform="matrix(1 -8.74228e-08 -8.74228e-08 -1 122 1.54688)" fill="white"/>
<rect opacity="0.5" width="1" height="1" transform="matrix(1 -8.74228e-08 -8.74228e-08 -1 16 1.54688)" fill="white"/>
<rect opacity="0.5" width="1" height="1" transform="matrix(1 -8.74228e-08 -8.74228e-08 -1 82 1.54688)" fill="white"/>
<rect opacity="0.5" width="1" height="1" transform="matrix(1 -8.74228e-08 -8.74228e-08 -1 36 1.54688)" fill="white"/>
<rect opacity="0.5" width="1" height="1" transform="matrix(1 -8.74228e-08 -8.74228e-08 -1 102 1.54688)" fill="white"/>
<rect opacity="0.5" width="1" height="1" transform="matrix(1 -8.74228e-08 -8.74228e-08 -1 54 1.54688)" fill="white"/>
<rect opacity="0.5" width="1" height="1" transform="matrix(1 -8.74228e-08 -8.74228e-08 -1 120 1.54688)" fill="white"/>
<rect opacity="0.5" width="1" height="1" transform="matrix(1 -8.74228e-08 -8.74228e-08 -1 14 1.54688)" fill="white"/>
<rect opacity="0.5" width="1" height="1" transform="matrix(1 -8.74228e-08 -8.74228e-08 -1 80 1.54688)" fill="white"/>
<rect opacity="0.5" width="1" height="1" transform="matrix(1 -8.74228e-08 -8.74228e-08 -1 34 1.54688)" fill="white"/>
<rect opacity="0.5" width="1" height="1" transform="matrix(1 -8.74228e-08 -8.74228e-08 -1 100 1.54688)" fill="white"/>
<rect opacity="0.5" width="1" height="1" transform="matrix(1 -8.74228e-08 -8.74228e-08 -1 52 1.54688)" fill="white"/>
<rect opacity="0.5" width="1" height="1" transform="matrix(1 -8.74228e-08 -8.74228e-08 -1 118 1.54688)" fill="white"/>
<rect opacity="0.5" width="1" height="1" transform="matrix(1 -8.74228e-08 -8.74228e-08 -1 12 1.54688)" fill="white"/>
<rect opacity="0.5" width="1" height="1" transform="matrix(1 -8.74228e-08 -8.74228e-08 -1 78 1.54688)" fill="white"/>
<rect opacity="0.5" width="1" height="1" transform="matrix(1 -8.74228e-08 -8.74228e-08 -1 32 1.54688)" fill="white"/>
<rect opacity="0.5" width="1" height="1" transform="matrix(1 -8.74228e-08 -8.74228e-08 -1 98 1.54688)" fill="white"/>
<rect opacity="0.5" width="1" height="1" transform="matrix(1 -8.74228e-08 -8.74228e-08 -1 50 1.54688)" fill="white"/>
<rect opacity="0.5" width="1" height="1" transform="matrix(1 -8.74228e-08 -8.74228e-08 -1 116 1.54688)" fill="white"/>
<rect opacity="0.5" width="1" height="1" transform="matrix(1 -8.74228e-08 -8.74228e-08 -1 10 1.54688)" fill="white"/>
<rect opacity="0.5" width="1" height="1" transform="matrix(1 -8.74228e-08 -8.74228e-08 -1 76 1.54688)" fill="white"/>
<rect opacity="0.5" width="1" height="1" transform="matrix(1 -8.74228e-08 -8.74228e-08 -1 30 1.54688)" fill="white"/>
<rect opacity="0.5" width="1" height="1" transform="matrix(1 -8.74228e-08 -8.74228e-08 -1 96 1.54688)" fill="white"/>
<rect opacity="0.5" width="1" height="1" transform="matrix(1 -8.74228e-08 -8.74228e-08 -1 48 1.54688)" fill="white"/>
<rect opacity="0.5" width="1" height="1" transform="matrix(1 -8.74228e-08 -8.74228e-08 -1 114 1.54688)" fill="white"/>
<rect opacity="0.5" width="1" height="1" transform="matrix(1 -8.74228e-08 -8.74228e-08 -1 8 1.54688)" fill="white"/>
<rect opacity="0.5" width="1" height="1" transform="matrix(1 -8.74228e-08 -8.74228e-08 -1 74 1.54688)" fill="white"/>
<rect opacity="0.5" width="1" height="1" transform="matrix(1 -8.74228e-08 -8.74228e-08 -1 28 1.54688)" fill="white"/>
<rect opacity="0.5" width="1" height="1" transform="matrix(1 -8.74228e-08 -8.74228e-08 -1 94 1.54688)" fill="white"/>
<rect opacity="0.5" width="1" height="1" transform="matrix(1 -8.74228e-08 -8.74228e-08 -1 46 1.54688)" fill="white"/>
<rect opacity="0.5" width="1" height="1" transform="matrix(1 -8.74228e-08 -8.74228e-08 -1 112 1.54688)" fill="white"/>
<rect opacity="0.5" width="1" height="1" transform="matrix(1 -8.74228e-08 -8.74228e-08 -1 6 1.54688)" fill="white"/>
<rect opacity="0.5" width="1" height="1" transform="matrix(1 -8.74228e-08 -8.74228e-08 -1 72 1.54688)" fill="white"/>
<rect opacity="0.5" width="1" height="1" transform="matrix(1 -8.74228e-08 -8.74228e-08 -1 26 1.54688)" fill="white"/>
<rect opacity="0.5" width="1" height="1" transform="matrix(1 -8.74228e-08 -8.74228e-08 -1 92 1.54688)" fill="white"/>
<rect opacity="0.5" width="1" height="1" transform="matrix(1 -8.74228e-08 -8.74228e-08 -1 196 1.54688)" fill="white"/>
<rect opacity="0.5" width="1" height="1" transform="matrix(1 -8.74228e-08 -8.74228e-08 -1 262 1.54688)" fill="white"/>
<rect opacity="0.5" width="1" height="1" transform="matrix(1 -8.74228e-08 -8.74228e-08 -1 156 1.54688)" fill="white"/>
<rect opacity="0.5" width="1" height="1" transform="matrix(1 -8.74228e-08 -8.74228e-08 -1 222 1.54688)" fill="white"/>
<rect opacity="0.5" width="1" height="1" transform="matrix(1 -8.74228e-08 -8.74228e-08 -1 176 1.54688)" fill="white"/>
<rect opacity="0.5" width="1" height="1" transform="matrix(1 -8.74228e-08 -8.74228e-08 -1 242 1.54688)" fill="white"/>
<rect opacity="0.5" width="1" height="1" transform="matrix(1 -8.74228e-08 -8.74228e-08 -1 136 1.54688)" fill="white"/>
<rect opacity="0.5" width="1" height="1" transform="matrix(1 -8.74228e-08 -8.74228e-08 -1 202 1.54688)" fill="white"/>
<rect opacity="0.5" width="1" height="1" transform="matrix(1 -8.74228e-08 -8.74228e-08 -1 194 1.54688)" fill="white"/>
<rect opacity="0.5" width="1" height="1" transform="matrix(1 -8.74228e-08 -8.74228e-08 -1 260 1.54688)" fill="white"/>
<rect opacity="0.5" width="1" height="1" transform="matrix(1 -8.74228e-08 -8.74228e-08 -1 154 1.54688)" fill="white"/>
<rect opacity="0.5" width="1" height="1" transform="matrix(1 -8.74228e-08 -8.74228e-08 -1 220 1.54688)" fill="white"/>
<rect opacity="0.5" width="1" height="1" transform="matrix(1 -8.74228e-08 -8.74228e-08 -1 174 1.54688)" fill="white"/>
<rect opacity="0.5" width="1" height="1" transform="matrix(1 -8.74228e-08 -8.74228e-08 -1 240 1.54688)" fill="white"/>
<rect opacity="0.5" width="1" height="1" transform="matrix(1 -8.74228e-08 -8.74228e-08 -1 134 1.54688)" fill="white"/>
<rect opacity="0.5" width="1" height="1" transform="matrix(1 -8.74228e-08 -8.74228e-08 -1 200 1.54688)" fill="white"/>
<rect opacity="0.5" width="1" height="1" transform="matrix(1 -8.74228e-08 -8.74228e-08 -1 192 1.54688)" fill="white"/>
<rect opacity="0.5" width="1" height="1" transform="matrix(1 -8.74228e-08 -8.74228e-08 -1 258 1.54688)" fill="white"/>
<rect opacity="0.5" width="1" height="1" transform="matrix(1 -8.74228e-08 -8.74228e-08 -1 152 1.54688)" fill="white"/>
<rect opacity="0.5" width="1" height="1" transform="matrix(1 -8.74228e-08 -8.74228e-08 -1 218 1.54688)" fill="white"/>
<rect opacity="0.5" width="1" height="1" transform="matrix(1 -8.74228e-08 -8.74228e-08 -1 172 1.54688)" fill="white"/>
<rect opacity="0.5" width="1" height="1" transform="matrix(1 -8.74228e-08 -8.74228e-08 -1 238 1.54688)" fill="white"/>
<rect opacity="0.5" width="1" height="1" transform="matrix(1 -8.74228e-08 -8.74228e-08 -1 132 1.54688)" fill="white"/>
<rect opacity="0.5" width="1" height="1" transform="matrix(1 -8.74228e-08 -8.74228e-08 -1 198 1.54688)" fill="white"/>
<rect opacity="0.5" width="1" height="1" transform="matrix(1 -8.74228e-08 -8.74228e-08 -1 190 1.54688)" fill="white"/>
<rect opacity="0.5" width="1" height="1" transform="matrix(1 -8.74228e-08 -8.74228e-08 -1 256 1.54688)" fill="white"/>
<rect opacity="0.5" width="1" height="1" transform="matrix(1 -8.74228e-08 -8.74228e-08 -1 150 1.54688)" fill="white"/>
<rect opacity="0.5" width="1" height="1" transform="matrix(1 -8.74228e-08 -8.74228e-08 -1 216 1.54688)" fill="white"/>
<rect opacity="0.5" width="1" height="1" transform="matrix(1 -8.74228e-08 -8.74228e-08 -1 170 1.54688)" fill="white"/>
<rect opacity="0.5" width="1" height="1" transform="matrix(1 -8.74228e-08 -8.74228e-08 -1 236 1.54688)" fill="white"/>
<rect opacity="0.5" width="1" height="1" transform="matrix(1 -8.74228e-08 -8.74228e-08 -1 188 1.54688)" fill="white"/>
<rect opacity="0.5" width="1" height="1" transform="matrix(1 -8.74228e-08 -8.74228e-08 -1 254 1.54688)" fill="white"/>
<rect opacity="0.5" width="1" height="1" transform="matrix(1 -8.74228e-08 -8.74228e-08 -1 148 1.54688)" fill="white"/>
<rect opacity="0.5" width="1" height="1" transform="matrix(1 -8.74228e-08 -8.74228e-08 -1 214 1.54688)" fill="white"/>
<rect opacity="0.5" width="1" height="1" transform="matrix(1 -8.74228e-08 -8.74228e-08 -1 168 1.54688)" fill="white"/>
<rect opacity="0.5" width="1" height="1" transform="matrix(1 -8.74228e-08 -8.74228e-08 -1 234 1.54688)" fill="white"/>
<rect opacity="0.5" width="1" height="1" transform="matrix(1 -8.74228e-08 -8.74228e-08 -1 186 1.54688)" fill="white"/>
<rect opacity="0.5" width="1" height="1" transform="matrix(1 -8.74228e-08 -8.74228e-08 -1 252 1.54688)" fill="white"/>
<rect opacity="0.5" width="1" height="1" transform="matrix(1 -8.74228e-08 -8.74228e-08 -1 146 1.54688)" fill="white"/>
<rect opacity="0.5" width="1" height="1" transform="matrix(1 -8.74228e-08 -8.74228e-08 -1 212 1.54688)" fill="white"/>
<rect opacity="0.5" width="1" height="1" transform="matrix(1 -8.74228e-08 -8.74228e-08 -1 166 1.54688)" fill="white"/>
<rect opacity="0.5" width="1" height="1" transform="matrix(1 -8.74228e-08 -8.74228e-08 -1 232 1.54688)" fill="white"/>
<rect opacity="0.5" width="1" height="1" transform="matrix(1 -8.74228e-08 -8.74228e-08 -1 184 1.54688)" fill="white"/>
<rect opacity="0.5" width="1" height="1" transform="matrix(1 -8.74228e-08 -8.74228e-08 -1 250 1.54688)" fill="white"/>
<rect opacity="0.5" width="1" height="1" transform="matrix(1 -8.74228e-08 -8.74228e-08 -1 144 1.54688)" fill="white"/>
<rect opacity="0.5" width="1" height="1" transform="matrix(1 -8.74228e-08 -8.74228e-08 -1 210 1.54688)" fill="white"/>
<rect opacity="0.5" width="1" height="1" transform="matrix(1 -8.74228e-08 -8.74228e-08 -1 164 1.54688)" fill="white"/>
<rect opacity="0.5" width="1" height="1" transform="matrix(1 -8.74228e-08 -8.74228e-08 -1 230 1.54688)" fill="white"/>
<rect opacity="0.5" width="1" height="1" transform="matrix(1 -8.74228e-08 -8.74228e-08 -1 182 1.54688)" fill="white"/>
<rect opacity="0.5" width="1" height="1" transform="matrix(1 -8.74228e-08 -8.74228e-08 -1 248 1.54688)" fill="white"/>
<rect opacity="0.5" width="1" height="1" transform="matrix(1 -8.74228e-08 -8.74228e-08 -1 142 1.54688)" fill="white"/>
<rect opacity="0.5" width="1" height="1" transform="matrix(1 -8.74228e-08 -8.74228e-08 -1 208 1.54688)" fill="white"/>
<rect opacity="0.5" width="1" height="1" transform="matrix(1 -8.74228e-08 -8.74228e-08 -1 162 1.54688)" fill="white"/>
<rect opacity="0.5" width="1" height="1" transform="matrix(1 -8.74228e-08 -8.74228e-08 -1 228 1.54688)" fill="white"/>
<rect opacity="0.5" width="1" height="1" transform="matrix(1 -8.74228e-08 -8.74228e-08 -1 180 1.54688)" fill="white"/>
<rect opacity="0.5" width="1" height="1" transform="matrix(1 -8.74228e-08 -8.74228e-08 -1 246 1.54688)" fill="white"/>
<rect opacity="0.5" width="1" height="1" transform="matrix(1 -8.74228e-08 -8.74228e-08 -1 140 1.54688)" fill="white"/>
<rect opacity="0.5" width="1" height="1" transform="matrix(1 -8.74228e-08 -8.74228e-08 -1 206 1.54688)" fill="white"/>
<rect opacity="0.5" width="1" height="1" transform="matrix(1 -8.74228e-08 -8.74228e-08 -1 160 1.54688)" fill="white"/>
<rect opacity="0.5" width="1" height="1" transform="matrix(1 -8.74228e-08 -8.74228e-08 -1 226 1.54688)" fill="white"/>
<rect opacity="0.5" width="1" height="1" transform="matrix(1 -8.74228e-08 -8.74228e-08 -1 178 1.54688)" fill="white"/>
<rect opacity="0.5" width="1" height="1" transform="matrix(1 -8.74228e-08 -8.74228e-08 -1 244 1.54688)" fill="white"/>
<rect opacity="0.5" width="1" height="1" transform="matrix(1 -8.74228e-08 -8.74228e-08 -1 138 1.54688)" fill="white"/>
<rect opacity="0.5" width="1" height="1" transform="matrix(1 -8.74228e-08 -8.74228e-08 -1 204 1.54688)" fill="white"/>
<rect opacity="0.5" width="1" height="1" transform="matrix(1 -8.74228e-08 -8.74228e-08 -1 158 1.54688)" fill="white"/>
<rect opacity="0.5" width="1" height="1" transform="matrix(1 -8.74228e-08 -8.74228e-08 -1 224 1.54688)" fill="white"/>
<rect opacity="0.5" width="1" height="1" transform="matrix(1 -8.74228e-08 -8.74228e-08 -1 328 1.54688)" fill="white"/>
<rect opacity="0.5" width="1" height="1" transform="matrix(1 -8.74228e-08 -8.74228e-08 -1 394 1.54688)" fill="white"/>
<rect opacity="0.5" width="1" height="1" transform="matrix(1 -8.74228e-08 -8.74228e-08 -1 288 1.54688)" fill="white"/>
<rect opacity="0.5" width="1" height="1" transform="matrix(1 -8.74228e-08 -8.74228e-08 -1 354 1.54688)" fill="white"/>
<rect opacity="0.5" width="1" height="1" transform="matrix(1 -8.74228e-08 -8.74228e-08 -1 308 1.54688)" fill="white"/>
<rect opacity="0.5" width="1" height="1" transform="matrix(1 -8.74228e-08 -8.74228e-08 -1 374 1.54688)" fill="white"/>
<rect opacity="0.5" width="1" height="1" transform="matrix(1 -8.74228e-08 -8.74228e-08 -1 268 1.54688)" fill="white"/>
<rect opacity="0.5" width="1" height="1" transform="matrix(1 -8.74228e-08 -8.74228e-08 -1 334 1.54688)" fill="white"/>
<rect opacity="0.5" width="1" height="1" transform="matrix(1 -8.74228e-08 -8.74228e-08 -1 326 1.54688)" fill="white"/>
<rect opacity="0.5" width="1" height="1" transform="matrix(1 -8.74228e-08 -8.74228e-08 -1 392 1.54688)" fill="white"/>
<rect opacity="0.5" width="1" height="1" transform="matrix(1 -8.74228e-08 -8.74228e-08 -1 286 1.54688)" fill="white"/>
<rect opacity="0.5" width="1" height="1" transform="matrix(1 -8.74228e-08 -8.74228e-08 -1 352 1.54688)" fill="white"/>
<rect opacity="0.5" width="1" height="1" transform="matrix(1 -8.74228e-08 -8.74228e-08 -1 306 1.54688)" fill="white"/>
<rect opacity="0.5" width="1" height="1" transform="matrix(1 -8.74228e-08 -8.74228e-08 -1 372 1.54688)" fill="white"/>
<rect opacity="0.5" width="1" height="1" transform="matrix(1 -8.74228e-08 -8.74228e-08 -1 266 1.54688)" fill="white"/>
<rect opacity="0.5" width="1" height="1" transform="matrix(1 -8.74228e-08 -8.74228e-08 -1 332 1.54688)" fill="white"/>
<rect opacity="0.5" width="1" height="1" transform="matrix(1 -8.74228e-08 -8.74228e-08 -1 324 1.54688)" fill="white"/>
<rect opacity="0.5" width="1" height="1" transform="matrix(1 -8.74228e-08 -8.74228e-08 -1 390 1.54688)" fill="white"/>
<rect opacity="0.5" width="1" height="1" transform="matrix(1 -8.74228e-08 -8.74228e-08 -1 284 1.54688)" fill="white"/>
<rect opacity="0.5" width="1" height="1" transform="matrix(1 -8.74228e-08 -8.74228e-08 -1 350 1.54688)" fill="white"/>
<rect opacity="0.5" width="1" height="1" transform="matrix(1 -8.74228e-08 -8.74228e-08 -1 304 1.54688)" fill="white"/>
<rect opacity="0.5" width="1" height="1" transform="matrix(1 -8.74228e-08 -8.74228e-08 -1 370 1.54688)" fill="white"/>
<rect opacity="0.5" width="1" height="1" transform="matrix(1 -8.74228e-08 -8.74228e-08 -1 264 1.54688)" fill="white"/>
<rect opacity="0.5" width="1" height="1" transform="matrix(1 -8.74228e-08 -8.74228e-08 -1 330 1.54688)" fill="white"/>
<rect opacity="0.5" width="1" height="1" transform="matrix(1 -8.74228e-08 -8.74228e-08 -1 322 1.54688)" fill="white"/>
<rect opacity="0.5" width="1" height="1" transform="matrix(1 -8.74228e-08 -8.74228e-08 -1 388 1.54688)" fill="white"/>
<rect opacity="0.5" width="1" height="1" transform="matrix(1 -8.74228e-08 -8.74228e-08 -1 282 1.54688)" fill="white"/>
<rect opacity="0.5" width="1" height="1" transform="matrix(1 -8.74228e-08 -8.74228e-08 -1 348 1.54688)" fill="white"/>
<rect opacity="0.5" width="1" height="1" transform="matrix(1 -8.74228e-08 -8.74228e-08 -1 302 1.54688)" fill="white"/>
<rect opacity="0.5" width="1" height="1" transform="matrix(1 -8.74228e-08 -8.74228e-08 -1 368 1.54688)" fill="white"/>
<rect opacity="0.5" width="1" height="1" transform="matrix(1 -8.74228e-08 -8.74228e-08 -1 320 1.54688)" fill="white"/>
<rect opacity="0.5" width="1" height="1" transform="matrix(1 -8.74228e-08 -8.74228e-08 -1 386 1.54688)" fill="white"/>
<rect opacity="0.5" width="1" height="1" transform="matrix(1 -8.74228e-08 -8.74228e-08 -1 280 1.54688)" fill="white"/>
<rect opacity="0.5" width="1" height="1" transform="matrix(1 -8.74228e-08 -8.74228e-08 -1 346 1.54688)" fill="white"/>
<rect opacity="0.5" width="1" height="1" transform="matrix(1 -8.74228e-08 -8.74228e-08 -1 300 1.54688)" fill="white"/>
<rect opacity="0.5" width="1" height="1" transform="matrix(1 -8.74228e-08 -8.74228e-08 -1 366 1.54688)" fill="white"/>
<rect opacity="0.5" width="1" height="1" transform="matrix(1 -8.74228e-08 -8.74228e-08 -1 318 1.54688)" fill="white"/>
<rect opacity="0.5" width="1" height="1" transform="matrix(1 -8.74228e-08 -8.74228e-08 -1 384 1.54688)" fill="white"/>
<rect opacity="0.5" width="1" height="1" transform="matrix(1 -8.74228e-08 -8.74228e-08 -1 278 1.54688)" fill="white"/>
<rect opacity="0.5" width="1" height="1" transform="matrix(1 -8.74228e-08 -8.74228e-08 -1 344 1.54688)" fill="white"/>
<rect opacity="0.5" width="1" height="1" transform="matrix(1 -8.74228e-08 -8.74228e-08 -1 298 1.54688)" fill="white"/>
<rect opacity="0.5" width="1" height="1" transform="matrix(1 -8.74228e-08 -8.74228e-08 -1 364 1.54688)" fill="white"/>
<rect opacity="0.5" width="1" height="1" transform="matrix(1 -8.74228e-08 -8.74228e-08 -1 316 1.54688)" fill="white"/>
<rect opacity="0.5" width="1" height="1" transform="matrix(1 -8.74228e-08 -8.74228e-08 -1 382 1.54688)" fill="white"/>
<rect opacity="0.5" width="1" height="1" transform="matrix(1 -8.74228e-08 -8.74228e-08 -1 276 1.54688)" fill="white"/>
<rect opacity="0.5" width="1" height="1" transform="matrix(1 -8.74228e-08 -8.74228e-08 -1 342 1.54688)" fill="white"/>
<rect opacity="0.5" width="1" height="1" transform="matrix(1 -8.74228e-08 -8.74228e-08 -1 296 1.54688)" fill="white"/>
<rect opacity="0.5" width="1" height="1" transform="matrix(1 -8.74228e-08 -8.74228e-08 -1 362 1.54688)" fill="white"/>
<rect opacity="0.5" width="1" height="1" transform="matrix(1 -8.74228e-08 -8.74228e-08 -1 314 1.54688)" fill="white"/>
<rect opacity="0.5" width="1" height="1" transform="matrix(1 -8.74228e-08 -8.74228e-08 -1 380 1.54688)" fill="white"/>
<rect opacity="0.5" width="1" height="1" transform="matrix(1 -8.74228e-08 -8.74228e-08 -1 274 1.54688)" fill="white"/>
<rect opacity="0.5" width="1" height="1" transform="matrix(1 -8.74228e-08 -8.74228e-08 -1 340 1.54688)" fill="white"/>
<rect opacity="0.5" width="1" height="1" transform="matrix(1 -8.74228e-08 -8.74228e-08 -1 294 1.54688)" fill="white"/>
<rect opacity="0.5" width="1" height="1" transform="matrix(1 -8.74228e-08 -8.74228e-08 -1 360 1.54688)" fill="white"/>
<rect opacity="0.5" width="1" height="1" transform="matrix(1 -8.74228e-08 -8.74228e-08 -1 312 1.54688)" fill="white"/>
<rect opacity="0.5" width="1" height="1" transform="matrix(1 -8.74228e-08 -8.74228e-08 -1 378 1.54688)" fill="white"/>
<rect opacity="0.5" width="1" height="1" transform="matrix(1 -8.74228e-08 -8.74228e-08 -1 272 1.54688)" fill="white"/>
<rect opacity="0.5" width="1" height="1" transform="matrix(1 -8.74228e-08 -8.74228e-08 -1 338 1.54688)" fill="white"/>
<rect opacity="0.5" width="1" height="1" transform="matrix(1 -8.74228e-08 -8.74228e-08 -1 292 1.54688)" fill="white"/>
<rect opacity="0.5" width="1" height="1" transform="matrix(1 -8.74228e-08 -8.74228e-08 -1 358 1.54688)" fill="white"/>
<rect opacity="0.5" width="1" height="1" transform="matrix(1 -8.74228e-08 -8.74228e-08 -1 310 1.54688)" fill="white"/>
<rect opacity="0.5" width="1" height="1" transform="matrix(1 -8.74228e-08 -8.74228e-08 -1 376 1.54688)" fill="white"/>
<rect opacity="0.5" width="1" height="1" transform="matrix(1 -8.74228e-08 -8.74228e-08 -1 270 1.54688)" fill="white"/>
<rect opacity="0.5" width="1" height="1" transform="matrix(1 -8.74228e-08 -8.74228e-08 -1 336 1.54688)" fill="white"/>
<rect opacity="0.5" width="1" height="1" transform="matrix(1 -8.74228e-08 -8.74228e-08 -1 290 1.54688)" fill="white"/>
<rect opacity="0.5" width="1" height="1" transform="matrix(1 -8.74228e-08 -8.74228e-08 -1 356 1.54688)" fill="white"/>
<rect opacity="0.5" width="1" height="1" transform="matrix(1 -8.74228e-08 -8.74228e-08 -1 460 1.54688)" fill="white"/>
<rect opacity="0.5" width="1" height="1" transform="matrix(1 -8.74228e-08 -8.74228e-08 -1 526 1.54688)" fill="white"/>
<rect opacity="0.5" width="1" height="1" transform="matrix(1 -8.74228e-08 -8.74228e-08 -1 420 1.54688)" fill="white"/>
<rect opacity="0.5" width="1" height="1" transform="matrix(1 -8.74228e-08 -8.74228e-08 -1 486 1.54688)" fill="white"/>
<rect opacity="0.5" width="1" height="1" transform="matrix(1 -8.74228e-08 -8.74228e-08 -1 440 1.54688)" fill="white"/>
<rect opacity="0.5" width="1" height="1" transform="matrix(1 -8.74228e-08 -8.74228e-08 -1 506 1.54688)" fill="white"/>
<rect opacity="0.5" width="1" height="1" transform="matrix(1 -8.74228e-08 -8.74228e-08 -1 400 1.54688)" fill="white"/>
<rect opacity="0.5" width="1" height="1" transform="matrix(1 -8.74228e-08 -8.74228e-08 -1 466 1.54688)" fill="white"/>
<rect opacity="0.5" width="1" height="1" transform="matrix(1 -8.74228e-08 -8.74228e-08 -1 458 1.54688)" fill="white"/>
<rect opacity="0.5" width="1" height="1" transform="matrix(1 -8.74228e-08 -8.74228e-08 -1 524 1.54688)" fill="white"/>
<rect opacity="0.5" width="1" height="1" transform="matrix(1 -8.74228e-08 -8.74228e-08 -1 418 1.54688)" fill="white"/>
<rect opacity="0.5" width="1" height="1" transform="matrix(1 -8.74228e-08 -8.74228e-08 -1 484 1.54688)" fill="white"/>
<rect opacity="0.5" width="1" height="1" transform="matrix(1 -8.74228e-08 -8.74228e-08 -1 438 1.54688)" fill="white"/>
<rect opacity="0.5" width="1" height="1" transform="matrix(1 -8.74228e-08 -8.74228e-08 -1 504 1.54688)" fill="white"/>
<rect opacity="0.5" width="1" height="1" transform="matrix(1 -8.74228e-08 -8.74228e-08 -1 398 1.54688)" fill="white"/>
<rect opacity="0.5" width="1" height="1" transform="matrix(1 -8.74228e-08 -8.74228e-08 -1 464 1.54688)" fill="white"/>
<rect opacity="0.5" width="1" height="1" transform="matrix(1 -8.74228e-08 -8.74228e-08 -1 456 1.54688)" fill="white"/>
<rect opacity="0.5" width="1" height="1" transform="matrix(1 -8.74228e-08 -8.74228e-08 -1 522 1.54688)" fill="white"/>
<rect opacity="0.5" width="1" height="1" transform="matrix(1 -8.74228e-08 -8.74228e-08 -1 416 1.54688)" fill="white"/>
<rect opacity="0.5" width="1" height="1" transform="matrix(1 -8.74228e-08 -8.74228e-08 -1 482 1.54688)" fill="white"/>
<rect opacity="0.5" width="1" height="1" transform="matrix(1 -8.74228e-08 -8.74228e-08 -1 436 1.54688)" fill="white"/>
<rect opacity="0.5" width="1" height="1" transform="matrix(1 -8.74228e-08 -8.74228e-08 -1 502 1.54688)" fill="white"/>
<rect opacity="0.5" width="1" height="1" transform="matrix(1 -8.74228e-08 -8.74228e-08 -1 396 1.54688)" fill="white"/>
<rect opacity="0.5" width="1" height="1" transform="matrix(1 -8.74228e-08 -8.74228e-08 -1 462 1.54688)" fill="white"/>
<rect opacity="0.5" width="1" height="1" transform="matrix(1 -8.74228e-08 -8.74228e-08 -1 454 1.54688)" fill="white"/>
<rect opacity="0.5" width="1" height="1" transform="matrix(1 -8.74228e-08 -8.74228e-08 -1 520 1.54688)" fill="white"/>
<rect opacity="0.5" width="1" height="1" transform="matrix(1 -8.74228e-08 -8.74228e-08 -1 414 1.54688)" fill="white"/>
<rect opacity="0.5" width="1" height="1" transform="matrix(1 -8.74228e-08 -8.74228e-08 -1 480 1.54688)" fill="white"/>
<rect opacity="0.5" width="1" height="1" transform="matrix(1 -8.74228e-08 -8.74228e-08 -1 434 1.54688)" fill="white"/>
<rect opacity="0.5" width="1" height="1" transform="matrix(1 -8.74228e-08 -8.74228e-08 -1 500 1.54688)" fill="white"/>
<rect opacity="0.5" width="1" height="1" transform="matrix(1 -8.74228e-08 -8.74228e-08 -1 452 1.54688)" fill="white"/>
<rect opacity="0.5" width="1" height="1" transform="matrix(1 -8.74228e-08 -8.74228e-08 -1 518 1.54688)" fill="white"/>
<rect opacity="0.5" width="1" height="1" transform="matrix(1 -8.74228e-08 -8.74228e-08 -1 412 1.54688)" fill="white"/>
<rect opacity="0.5" width="1" height="1" transform="matrix(1 -8.74228e-08 -8.74228e-08 -1 478 1.54688)" fill="white"/>
<rect opacity="0.5" width="1" height="1" transform="matrix(1 -8.74228e-08 -8.74228e-08 -1 432 1.54688)" fill="white"/>
<rect opacity="0.5" width="1" height="1" transform="matrix(1 -8.74228e-08 -8.74228e-08 -1 498 1.54688)" fill="white"/>
<rect opacity="0.5" width="1" height="1" transform="matrix(1 -8.74228e-08 -8.74228e-08 -1 450 1.54688)" fill="white"/>
<rect opacity="0.5" width="1" height="1" transform="matrix(1 -8.74228e-08 -8.74228e-08 -1 516 1.54688)" fill="white"/>
<rect opacity="0.5" width="1" height="1" transform="matrix(1 -8.74228e-08 -8.74228e-08 -1 410 1.54688)" fill="white"/>
<rect opacity="0.5" width="1" height="1" transform="matrix(1 -8.74228e-08 -8.74228e-08 -1 476 1.54688)" fill="white"/>
<rect opacity="0.5" width="1" height="1" transform="matrix(1 -8.74228e-08 -8.74228e-08 -1 430 1.54688)" fill="white"/>
<rect opacity="0.5" width="1" height="1" transform="matrix(1 -8.74228e-08 -8.74228e-08 -1 496 1.54688)" fill="white"/>
<rect opacity="0.5" width="1" height="1" transform="matrix(1 -8.74228e-08 -8.74228e-08 -1 448 1.54688)" fill="white"/>
<rect opacity="0.5" width="1" height="1" transform="matrix(1 -8.74228e-08 -8.74228e-08 -1 514 1.54688)" fill="white"/>
<rect opacity="0.5" width="1" height="1" transform="matrix(1 -8.74228e-08 -8.74228e-08 -1 408 1.54688)" fill="white"/>
<rect opacity="0.5" width="1" height="1" transform="matrix(1 -8.74228e-08 -8.74228e-08 -1 474 1.54688)" fill="white"/>
<rect opacity="0.5" width="1" height="1" transform="matrix(1 -8.74228e-08 -8.74228e-08 -1 428 1.54688)" fill="white"/>
<rect opacity="0.5" width="1" height="1" transform="matrix(1 -8.74228e-08 -8.74228e-08 -1 494 1.54688)" fill="white"/>
<rect opacity="0.5" width="1" height="1" transform="matrix(1 -8.74228e-08 -8.74228e-08 -1 446 1.54688)" fill="white"/>
<rect opacity="0.5" width="1" height="1" transform="matrix(1 -8.74228e-08 -8.74228e-08 -1 512 1.54688)" fill="white"/>
<rect opacity="0.5" width="1" height="1" transform="matrix(1 -8.74228e-08 -8.74228e-08 -1 406 1.54688)" fill="white"/>
<rect opacity="0.5" width="1" height="1" transform="matrix(1 -8.74228e-08 -8.74228e-08 -1 472 1.54688)" fill="white"/>
<rect opacity="0.5" width="1" height="1" transform="matrix(1 -8.74228e-08 -8.74228e-08 -1 426 1.54688)" fill="white"/>
<rect opacity="0.5" width="1" height="1" transform="matrix(1 -8.74228e-08 -8.74228e-08 -1 492 1.54688)" fill="white"/>
<rect opacity="0.5" width="1" height="1" transform="matrix(1 -8.74228e-08 -8.74228e-08 -1 444 1.54688)" fill="white"/>
<rect opacity="0.5" width="1" height="1" transform="matrix(1 -8.74228e-08 -8.74228e-08 -1 510 1.54688)" fill="white"/>
<rect opacity="0.5" width="1" height="1" transform="matrix(1 -8.74228e-08 -8.74228e-08 -1 404 1.54688)" fill="white"/>
<rect opacity="0.5" width="1" height="1" transform="matrix(1 -8.74228e-08 -8.74228e-08 -1 470 1.54688)" fill="white"/>
<rect opacity="0.5" width="1" height="1" transform="matrix(1 -8.74228e-08 -8.74228e-08 -1 424 1.54688)" fill="white"/>
<rect opacity="0.5" width="1" height="1" transform="matrix(1 -8.74228e-08 -8.74228e-08 -1 490 1.54688)" fill="white"/>
<rect opacity="0.5" width="1" height="1" transform="matrix(1 -8.74228e-08 -8.74228e-08 -1 442 1.54688)" fill="white"/>
<rect opacity="0.5" width="1" height="1" transform="matrix(1 -8.74228e-08 -8.74228e-08 -1 508 1.54688)" fill="white"/>
<rect opacity="0.5" width="1" height="1" transform="matrix(1 -8.74228e-08 -8.74228e-08 -1 402 1.54688)" fill="white"/>
<rect opacity="0.5" width="1" height="1" transform="matrix(1 -8.74228e-08 -8.74228e-08 -1 468 1.54688)" fill="white"/>
<rect opacity="0.5" width="1" height="1" transform="matrix(1 -8.74228e-08 -8.74228e-08 -1 422 1.54688)" fill="white"/>
<rect opacity="0.5" width="1" height="1" transform="matrix(1 -8.74228e-08 -8.74228e-08 -1 488 1.54688)" fill="white"/>
<rect opacity="0.5" width="1" height="1" transform="matrix(1 -8.74228e-08 -8.74228e-08 -1 592 1.54688)" fill="white"/>
<rect opacity="0.5" width="1" height="1" transform="matrix(1 -8.74228e-08 -8.74228e-08 -1 658 1.54688)" fill="white"/>
<rect opacity="0.5" width="1" height="1" transform="matrix(1 -8.74228e-08 -8.74228e-08 -1 552 1.54688)" fill="white"/>
<rect opacity="0.5" width="1" height="1" transform="matrix(1 -8.74228e-08 -8.74228e-08 -1 618 1.54688)" fill="white"/>
<rect opacity="0.5" width="1" height="1" transform="matrix(1 -8.74228e-08 -8.74228e-08 -1 572 1.54688)" fill="white"/>
<rect opacity="0.5" width="1" height="1" transform="matrix(1 -8.74228e-08 -8.74228e-08 -1 638 1.54688)" fill="white"/>
<rect opacity="0.5" width="1" height="1" transform="matrix(1 -8.74228e-08 -8.74228e-08 -1 532 1.54688)" fill="white"/>
<rect opacity="0.5" width="1" height="1" transform="matrix(1 -8.74228e-08 -8.74228e-08 -1 598 1.54688)" fill="white"/>
<rect opacity="0.5" width="1" height="1" transform="matrix(1 -8.74228e-08 -8.74228e-08 -1 590 1.54688)" fill="white"/>
<rect opacity="0.5" width="1" height="1" transform="matrix(1 -8.74228e-08 -8.74228e-08 -1 656 1.54688)" fill="white"/>
<rect opacity="0.5" width="1" height="1" transform="matrix(1 -8.74228e-08 -8.74228e-08 -1 550 1.54688)" fill="white"/>
<rect opacity="0.5" width="1" height="1" transform="matrix(1 -8.74228e-08 -8.74228e-08 -1 616 1.54688)" fill="white"/>
<rect opacity="0.5" width="1" height="1" transform="matrix(1 -8.74228e-08 -8.74228e-08 -1 570 1.54688)" fill="white"/>
<rect opacity="0.5" width="1" height="1" transform="matrix(1 -8.74228e-08 -8.74228e-08 -1 636 1.54688)" fill="white"/>
<rect opacity="0.5" width="1" height="1" transform="matrix(1 -8.74228e-08 -8.74228e-08 -1 530 1.54688)" fill="white"/>
<rect opacity="0.5" width="1" height="1" transform="matrix(1 -8.74228e-08 -8.74228e-08 -1 596 1.54688)" fill="white"/>
<rect opacity="0.5" width="1" height="1" transform="matrix(1 -8.74228e-08 -8.74228e-08 -1 588 1.54688)" fill="white"/>
<rect opacity="0.5" width="1" height="1" transform="matrix(1 -8.74228e-08 -8.74228e-08 -1 654 1.54688)" fill="white"/>
<rect opacity="0.5" width="1" height="1" transform="matrix(1 -8.74228e-08 -8.74228e-08 -1 548 1.54688)" fill="white"/>
<rect opacity="0.5" width="1" height="1" transform="matrix(1 -8.74228e-08 -8.74228e-08 -1 614 1.54688)" fill="white"/>
<rect opacity="0.5" width="1" height="1" transform="matrix(1 -8.74228e-08 -8.74228e-08 -1 568 1.54688)" fill="white"/>
<rect opacity="0.5" width="1" height="1" transform="matrix(1 -8.74228e-08 -8.74228e-08 -1 634 1.54688)" fill="white"/>
<rect opacity="0.5" width="1" height="1" transform="matrix(1 -8.74228e-08 -8.74228e-08 -1 528 1.54688)" fill="white"/>
<rect opacity="0.5" width="1" height="1" transform="matrix(1 -8.74228e-08 -8.74228e-08 -1 594 1.54688)" fill="white"/>
<rect opacity="0.5" width="1" height="1" transform="matrix(1 -8.74228e-08 -8.74228e-08 -1 586 1.54688)" fill="white"/>
<rect opacity="0.5" width="1" height="1" transform="matrix(1 -8.74228e-08 -8.74228e-08 -1 652 1.54688)" fill="white"/>
<rect opacity="0.5" width="1" height="1" transform="matrix(1 -8.74228e-08 -8.74228e-08 -1 546 1.54688)" fill="white"/>
<rect opacity="0.5" width="1" height="1" transform="matrix(1 -8.74228e-08 -8.74228e-08 -1 612 1.54688)" fill="white"/>
<rect opacity="0.5" width="1" height="1" transform="matrix(1 -8.74228e-08 -8.74228e-08 -1 566 1.54688)" fill="white"/>
<rect opacity="0.5" width="1" height="1" transform="matrix(1 -8.74228e-08 -8.74228e-08 -1 632 1.54688)" fill="white"/>
<rect opacity="0.5" width="1" height="1" transform="matrix(1 -8.74228e-08 -8.74228e-08 -1 584 1.54688)" fill="white"/>
<rect opacity="0.5" width="1" height="1" transform="matrix(1 -8.74228e-08 -8.74228e-08 -1 650 1.54688)" fill="white"/>
<rect opacity="0.5" width="1" height="1" transform="matrix(1 -8.74228e-08 -8.74228e-08 -1 544 1.54688)" fill="white"/>
<rect opacity="0.5" width="1" height="1" transform="matrix(1 -8.74228e-08 -8.74228e-08 -1 610 1.54688)" fill="white"/>
<rect opacity="0.5" width="1" height="1" transform="matrix(1 -8.74228e-08 -8.74228e-08 -1 564 1.54688)" fill="white"/>
<rect opacity="0.5" width="1" height="1" transform="matrix(1 -8.74228e-08 -8.74228e-08 -1 630 1.54688)" fill="white"/>
<rect opacity="0.5" width="1" height="1" transform="matrix(1 -8.74228e-08 -8.74228e-08 -1 582 1.54688)" fill="white"/>
<rect opacity="0.5" width="1" height="1" transform="matrix(1 -8.74228e-08 -8.74228e-08 -1 648 1.54688)" fill="white"/>
<rect opacity="0.5" width="1" height="1" transform="matrix(1 -8.74228e-08 -8.74228e-08 -1 542 1.54688)" fill="white"/>
<rect opacity="0.5" width="1" height="1" transform="matrix(1 -8.74228e-08 -8.74228e-08 -1 608 1.54688)" fill="white"/>
<rect opacity="0.5" width="1" height="1" transform="matrix(1 -8.74228e-08 -8.74228e-08 -1 562 1.54688)" fill="white"/>
<rect opacity="0.5" width="1" height="1" transform="matrix(1 -8.74228e-08 -8.74228e-08 -1 628 1.54688)" fill="white"/>
<rect opacity="0.5" width="1" height="1" transform="matrix(1 -8.74228e-08 -8.74228e-08 -1 580 1.54688)" fill="white"/>
<rect opacity="0.5" width="1" height="1" transform="matrix(1 -8.74228e-08 -8.74228e-08 -1 646 1.54688)" fill="white"/>
<rect opacity="0.5" width="1" height="1" transform="matrix(1 -8.74228e-08 -8.74228e-08 -1 540 1.54688)" fill="white"/>
<rect opacity="0.5" width="1" height="1" transform="matrix(1 -8.74228e-08 -8.74228e-08 -1 606 1.54688)" fill="white"/>
<rect opacity="0.5" width="1" height="1" transform="matrix(1 -8.74228e-08 -8.74228e-08 -1 560 1.54688)" fill="white"/>
<rect opacity="0.5" width="1" height="1" transform="matrix(1 -8.74228e-08 -8.74228e-08 -1 626 1.54688)" fill="white"/>
<rect opacity="0.5" width="1" height="1" transform="matrix(1 -8.74228e-08 -8.74228e-08 -1 578 1.54688)" fill="white"/>
<rect opacity="0.5" width="1" height="1" transform="matrix(1 -8.74228e-08 -8.74228e-08 -1 644 1.54688)" fill="white"/>
<rect opacity="0.5" width="1" height="1" transform="matrix(1 -8.74228e-08 -8.74228e-08 -1 538 1.54688)" fill="white"/>
<rect opacity="0.5" width="1" height="1" transform="matrix(1 -8.74228e-08 -8.74228e-08 -1 604 1.54688)" fill="white"/>
<rect opacity="0.5" width="1" height="1" transform="matrix(1 -8.74228e-08 -8.74228e-08 -1 558 1.54688)" fill="white"/>
<rect opacity="0.5" width="1" height="1" transform="matrix(1 -8.74228e-08 -8.74228e-08 -1 624 1.54688)" fill="white"/>
<rect opacity="0.5" width="1" height="1" transform="matrix(1 -8.74228e-08 -8.74228e-08 -1 576 1.54688)" fill="white"/>
<rect opacity="0.5" width="1" height="1" transform="matrix(1 -8.74228e-08 -8.74228e-08 -1 642 1.54688)" fill="white"/>
<rect opacity="0.5" width="1" height="1" transform="matrix(1 -8.74228e-08 -8.74228e-08 -1 536 1.54688)" fill="white"/>
<rect opacity="0.5" width="1" height="1" transform="matrix(1 -8.74228e-08 -8.74228e-08 -1 602 1.54688)" fill="white"/>
<rect opacity="0.5" width="1" height="1" transform="matrix(1 -8.74228e-08 -8.74228e-08 -1 556 1.54688)" fill="white"/>
<rect opacity="0.5" width="1" height="1" transform="matrix(1 -8.74228e-08 -8.74228e-08 -1 622 1.54688)" fill="white"/>
<rect opacity="0.5" width="1" height="1" transform="matrix(1 -8.74228e-08 -8.74228e-08 -1 574 1.54688)" fill="white"/>
<rect opacity="0.5" width="1" height="1" transform="matrix(1 -8.74228e-08 -8.74228e-08 -1 640 1.54688)" fill="white"/>
<rect opacity="0.5" width="1" height="1" transform="matrix(1 -8.74228e-08 -8.74228e-08 -1 534 1.54688)" fill="white"/>
<rect opacity="0.5" width="1" height="1" transform="matrix(1 -8.74228e-08 -8.74228e-08 -1 600 1.54688)" fill="white"/>
<rect opacity="0.5" width="1" height="1" transform="matrix(1 -8.74228e-08 -8.74228e-08 -1 554 1.54688)" fill="white"/>
<rect opacity="0.5" width="1" height="1" transform="matrix(1 -8.74228e-08 -8.74228e-08 -1 620 1.54688)" fill="white"/>
<rect opacity="0.5" width="1" height="1" transform="matrix(1 -8.74228e-08 -8.74228e-08 -1 724 1.54688)" fill="white"/>
<rect opacity="0.5" width="1" height="1" transform="matrix(1 -8.74228e-08 -8.74228e-08 -1 790 1.54688)" fill="white"/>
<rect opacity="0.5" width="1" height="1" transform="matrix(1 -8.74228e-08 -8.74228e-08 -1 684 1.54688)" fill="white"/>
<rect opacity="0.5" width="1" height="1" transform="matrix(1 -8.74228e-08 -8.74228e-08 -1 750 1.54688)" fill="white"/>
<rect opacity="0.5" width="1" height="1" transform="matrix(1 -8.74228e-08 -8.74228e-08 -1 704 1.54688)" fill="white"/>
<rect opacity="0.5" width="1" height="1" transform="matrix(1 -8.74228e-08 -8.74228e-08 -1 770 1.54688)" fill="white"/>
<rect opacity="0.5" width="1" height="1" transform="matrix(1 -8.74228e-08 -8.74228e-08 -1 664 1.54688)" fill="white"/>
<rect opacity="0.5" width="1" height="1" transform="matrix(1 -8.74228e-08 -8.74228e-08 -1 730 1.54688)" fill="white"/>
<rect opacity="0.5" width="1" height="1" transform="matrix(1 -8.74228e-08 -8.74228e-08 -1 722 1.54688)" fill="white"/>
<rect opacity="0.5" width="1" height="1" transform="matrix(1 -8.74228e-08 -8.74228e-08 -1 788 1.54688)" fill="white"/>
<rect opacity="0.5" width="1" height="1" transform="matrix(1 -8.74228e-08 -8.74228e-08 -1 682 1.54688)" fill="white"/>
<rect opacity="0.5" width="1" height="1" transform="matrix(1 -8.74228e-08 -8.74228e-08 -1 748 1.54688)" fill="white"/>
<rect opacity="0.5" width="1" height="1" transform="matrix(1 -8.74228e-08 -8.74228e-08 -1 702 1.54688)" fill="white"/>
<rect opacity="0.5" width="1" height="1" transform="matrix(1 -8.74228e-08 -8.74228e-08 -1 768 1.54688)" fill="white"/>
<rect opacity="0.5" width="1" height="1" transform="matrix(1 -8.74228e-08 -8.74228e-08 -1 662 1.54688)" fill="white"/>
<rect opacity="0.5" width="1" height="1" transform="matrix(1 -8.74228e-08 -8.74228e-08 -1 728 1.54688)" fill="white"/>
<rect opacity="0.5" width="1" height="1" transform="matrix(1 -8.74228e-08 -8.74228e-08 -1 720 1.54688)" fill="white"/>
<rect opacity="0.5" width="1" height="1" transform="matrix(1 -8.74228e-08 -8.74228e-08 -1 786 1.54688)" fill="white"/>
<rect opacity="0.5" width="1" height="1" transform="matrix(1 -8.74228e-08 -8.74228e-08 -1 680 1.54688)" fill="white"/>
<rect opacity="0.5" width="1" height="1" transform="matrix(1 -8.74228e-08 -8.74228e-08 -1 746 1.54688)" fill="white"/>
<rect opacity="0.5" width="1" height="1" transform="matrix(1 -8.74228e-08 -8.74228e-08 -1 700 1.54688)" fill="white"/>
<rect opacity="0.5" width="1" height="1" transform="matrix(1 -8.74228e-08 -8.74228e-08 -1 766 1.54688)" fill="white"/>
<rect opacity="0.5" width="1" height="1" transform="matrix(1 -8.74228e-08 -8.74228e-08 -1 660 1.54688)" fill="white"/>
<rect opacity="0.5" width="1" height="1" transform="matrix(1 -8.74228e-08 -8.74228e-08 -1 726 1.54688)" fill="white"/>
<rect opacity="0.5" width="1" height="1" transform="matrix(1 -8.74228e-08 -8.74228e-08 -1 718 1.54688)" fill="white"/>
<rect opacity="0.5" width="1" height="1" transform="matrix(1 -8.74228e-08 -8.74228e-08 -1 784 1.54688)" fill="white"/>
<rect opacity="0.5" width="1" height="1" transform="matrix(1 -8.74228e-08 -8.74228e-08 -1 678 1.54688)" fill="white"/>
<rect opacity="0.5" width="1" height="1" transform="matrix(1 -8.74228e-08 -8.74228e-08 -1 744 1.54688)" fill="white"/>
<rect opacity="0.5" width="1" height="1" transform="matrix(1 -8.74228e-08 -8.74228e-08 -1 698 1.54688)" fill="white"/>
<rect opacity="0.5" width="1" height="1" transform="matrix(1 -8.74228e-08 -8.74228e-08 -1 764 1.54688)" fill="white"/>
<rect opacity="0.5" width="1" height="1" transform="matrix(1 -8.74228e-08 -8.74228e-08 -1 716 1.54688)" fill="white"/>
<rect opacity="0.5" width="1" height="1" transform="matrix(1 -8.74228e-08 -8.74228e-08 -1 782 1.54688)" fill="white"/>
<rect opacity="0.5" width="1" height="1" transform="matrix(1 -8.74228e-08 -8.74228e-08 -1 676 1.54688)" fill="white"/>
<rect opacity="0.5" width="1" height="1" transform="matrix(1 -8.74228e-08 -8.74228e-08 -1 742 1.54688)" fill="white"/>
<rect opacity="0.5" width="1" height="1" transform="matrix(1 -8.74228e-08 -8.74228e-08 -1 696 1.54688)" fill="white"/>
<rect opacity="0.5" width="1" height="1" transform="matrix(1 -8.74228e-08 -8.74228e-08 -1 762 1.54688)" fill="white"/>
<rect opacity="0.5" width="1" height="1" transform="matrix(1 -8.74228e-08 -8.74228e-08 -1 714 1.54688)" fill="white"/>
<rect opacity="0.5" width="1" height="1" transform="matrix(1 -8.74228e-08 -8.74228e-08 -1 780 1.54688)" fill="white"/>
<rect opacity="0.5" width="1" height="1" transform="matrix(1 -8.74228e-08 -8.74228e-08 -1 674 1.54688)" fill="white"/>
<rect opacity="0.5" width="1" height="1" transform="matrix(1 -8.74228e-08 -8.74228e-08 -1 740 1.54688)" fill="white"/>
<rect opacity="0.5" width="1" height="1" transform="matrix(1 -8.74228e-08 -8.74228e-08 -1 694 1.54688)" fill="white"/>
<rect opacity="0.5" width="1" height="1" transform="matrix(1 -8.74228e-08 -8.74228e-08 -1 760 1.54688)" fill="white"/>
<rect opacity="0.5" width="1" height="1" transform="matrix(1 -8.74228e-08 -8.74228e-08 -1 712 1.54688)" fill="white"/>
<rect opacity="0.5" width="1" height="1" transform="matrix(1 -8.74228e-08 -8.74228e-08 -1 778 1.54688)" fill="white"/>
<rect opacity="0.5" width="1" height="1" transform="matrix(1 -8.74228e-08 -8.74228e-08 -1 672 1.54688)" fill="white"/>
<rect opacity="0.5" width="1" height="1" transform="matrix(1 -8.74228e-08 -8.74228e-08 -1 738 1.54688)" fill="white"/>
<rect opacity="0.5" width="1" height="1" transform="matrix(1 -8.74228e-08 -8.74228e-08 -1 692 1.54688)" fill="white"/>
<rect opacity="0.5" width="1" height="1" transform="matrix(1 -8.74228e-08 -8.74228e-08 -1 758 1.54688)" fill="white"/>
<rect opacity="0.5" width="1" height="1" transform="matrix(1 -8.74228e-08 -8.74228e-08 -1 710 1.54688)" fill="white"/>
<rect opacity="0.5" width="1" height="1" transform="matrix(1 -8.74228e-08 -8.74228e-08 -1 776 1.54688)" fill="white"/>
<rect opacity="0.5" width="1" height="1" transform="matrix(1 -8.74228e-08 -8.74228e-08 -1 670 1.54688)" fill="white"/>
<rect opacity="0.5" width="1" height="1" transform="matrix(1 -8.74228e-08 -8.74228e-08 -1 736 1.54688)" fill="white"/>
<rect opacity="0.5" width="1" height="1" transform="matrix(1 -8.74228e-08 -8.74228e-08 -1 690 1.54688)" fill="white"/>
<rect opacity="0.5" width="1" height="1" transform="matrix(1 -8.74228e-08 -8.74228e-08 -1 756 1.54688)" fill="white"/>
<rect opacity="0.5" width="1" height="1" transform="matrix(1 -8.74228e-08 -8.74228e-08 -1 708 1.54688)" fill="white"/>
<rect opacity="0.5" width="1" height="1" transform="matrix(1 -8.74228e-08 -8.74228e-08 -1 774 1.54688)" fill="white"/>
<rect opacity="0.5" width="1" height="1" transform="matrix(1 -8.74228e-08 -8.74228e-08 -1 668 1.54688)" fill="white"/>
<rect opacity="0.5" width="1" height="1" transform="matrix(1 -8.74228e-08 -8.74228e-08 -1 734 1.54688)" fill="white"/>
<rect opacity="0.5" width="1" height="1" transform="matrix(1 -8.74228e-08 -8.74228e-08 -1 688 1.54688)" fill="white"/>
<rect opacity="0.5" width="1" height="1" transform="matrix(1 -8.74228e-08 -8.74228e-08 -1 754 1.54688)" fill="white"/>
<rect opacity="0.5" width="1" height="1" transform="matrix(1 -8.74228e-08 -8.74228e-08 -1 706 1.54688)" fill="white"/>
<rect opacity="0.5" width="1" height="1" transform="matrix(1 -8.74228e-08 -8.74228e-08 -1 772 1.54688)" fill="white"/>
<rect opacity="0.5" width="1" height="1" transform="matrix(1 -8.74228e-08 -8.74228e-08 -1 666 1.54688)" fill="white"/>
<rect opacity="0.5" width="1" height="1" transform="matrix(1 -8.74228e-08 -8.74228e-08 -1 732 1.54688)" fill="white"/>
<rect opacity="0.5" width="1" height="1" transform="matrix(1 -8.74228e-08 -8.74228e-08 -1 686 1.54688)" fill="white"/>
<rect opacity="0.5" width="1" height="1" transform="matrix(1 -8.74228e-08 -8.74228e-08 -1 752 1.54688)" fill="white"/>
<rect opacity="0.5" width="1" height="1" transform="matrix(1 -8.74228e-08 -8.74228e-08 -1 856 1.54688)" fill="white"/>
<rect opacity="0.5" width="1" height="1" transform="matrix(1 -8.74228e-08 -8.74228e-08 -1 922 1.54688)" fill="white"/>
<rect opacity="0.5" width="1" height="1" transform="matrix(1 -8.74228e-08 -8.74228e-08 -1 816 1.54688)" fill="white"/>
<rect opacity="0.5" width="1" height="1" transform="matrix(1 -8.74228e-08 -8.74228e-08 -1 882 1.54688)" fill="white"/>
<rect opacity="0.5" width="1" height="1" transform="matrix(1 -8.74228e-08 -8.74228e-08 -1 836 1.54688)" fill="white"/>
<rect opacity="0.5" width="1" height="1" transform="matrix(1 -8.74228e-08 -8.74228e-08 -1 902 1.54688)" fill="white"/>
<rect opacity="0.5" width="1" height="1" transform="matrix(1 -8.74228e-08 -8.74228e-08 -1 796 1.54688)" fill="white"/>
<rect opacity="0.5" width="1" height="1" transform="matrix(1 -8.74228e-08 -8.74228e-08 -1 862 1.54688)" fill="white"/>
<rect opacity="0.5" width="1" height="1" transform="matrix(1 -8.74228e-08 -8.74228e-08 -1 854 1.54688)" fill="white"/>
<rect opacity="0.5" width="1" height="1" transform="matrix(1 -8.74228e-08 -8.74228e-08 -1 920 1.54688)" fill="white"/>
<rect opacity="0.5" width="1" height="1" transform="matrix(1 -8.74228e-08 -8.74228e-08 -1 814 1.54688)" fill="white"/>
<rect opacity="0.5" width="1" height="1" transform="matrix(1 -8.74228e-08 -8.74228e-08 -1 880 1.54688)" fill="white"/>
<rect opacity="0.5" width="1" height="1" transform="matrix(1 -8.74228e-08 -8.74228e-08 -1 834 1.54688)" fill="white"/>
<rect opacity="0.5" width="1" height="1" transform="matrix(1 -8.74228e-08 -8.74228e-08 -1 900 1.54688)" fill="white"/>
<rect opacity="0.5" width="1" height="1" transform="matrix(1 -8.74228e-08 -8.74228e-08 -1 794 1.54688)" fill="white"/>
<rect opacity="0.5" width="1" height="1" transform="matrix(1 -8.74228e-08 -8.74228e-08 -1 860 1.54688)" fill="white"/>
<rect opacity="0.5" width="1" height="1" transform="matrix(1 -8.74228e-08 -8.74228e-08 -1 852 1.54688)" fill="white"/>
<rect opacity="0.5" width="1" height="1" transform="matrix(1 -8.74228e-08 -8.74228e-08 -1 918 1.54688)" fill="white"/>
<rect opacity="0.5" width="1" height="1" transform="matrix(1 -8.74228e-08 -8.74228e-08 -1 812 1.54688)" fill="white"/>
<rect opacity="0.5" width="1" height="1" transform="matrix(1 -8.74228e-08 -8.74228e-08 -1 878 1.54688)" fill="white"/>
<rect opacity="0.5" width="1" height="1" transform="matrix(1 -8.74228e-08 -8.74228e-08 -1 832 1.54688)" fill="white"/>
<rect opacity="0.5" width="1" height="1" transform="matrix(1 -8.74228e-08 -8.74228e-08 -1 898 1.54688)" fill="white"/>
<rect opacity="0.5" width="1" height="1" transform="matrix(1 -8.74228e-08 -8.74228e-08 -1 792 1.54688)" fill="white"/>
<rect opacity="0.5" width="1" height="1" transform="matrix(1 -8.74228e-08 -8.74228e-08 -1 858 1.54688)" fill="white"/>
<rect opacity="0.5" width="1" height="1" transform="matrix(1 -8.74228e-08 -8.74228e-08 -1 850 1.54688)" fill="white"/>
<rect opacity="0.5" width="1" height="1" transform="matrix(1 -8.74228e-08 -8.74228e-08 -1 916 1.54688)" fill="white"/>
<rect opacity="0.5" width="1" height="1" transform="matrix(1 -8.74228e-08 -8.74228e-08 -1 810 1.54688)" fill="white"/>
<rect opacity="0.5" width="1" height="1" transform="matrix(1 -8.74228e-08 -8.74228e-08 -1 876 1.54688)" fill="white"/>
<rect opacity="0.5" width="1" height="1" transform="matrix(1 -8.74228e-08 -8.74228e-08 -1 830 1.54688)" fill="white"/>
<rect opacity="0.5" width="1" height="1" transform="matrix(1 -8.74228e-08 -8.74228e-08 -1 896 1.54688)" fill="white"/>
<rect opacity="0.5" width="1" height="1" transform="matrix(1 -8.74228e-08 -8.74228e-08 -1 848 1.54688)" fill="white"/>
<rect opacity="0.5" width="1" height="1" transform="matrix(1 -8.74228e-08 -8.74228e-08 -1 914 1.54688)" fill="white"/>
<rect opacity="0.5" width="1" height="1" transform="matrix(1 -8.74228e-08 -8.74228e-08 -1 808 1.54688)" fill="white"/>
<rect opacity="0.5" width="1" height="1" transform="matrix(1 -8.74228e-08 -8.74228e-08 -1 874 1.54688)" fill="white"/>
<rect opacity="0.5" width="1" height="1" transform="matrix(1 -8.74228e-08 -8.74228e-08 -1 828 1.54688)" fill="white"/>
<rect opacity="0.5" width="1" height="1" transform="matrix(1 -8.74228e-08 -8.74228e-08 -1 894 1.54688)" fill="white"/>
<rect opacity="0.5" width="1" height="1" transform="matrix(1 -8.74228e-08 -8.74228e-08 -1 846 1.54688)" fill="white"/>
<rect opacity="0.5" width="1" height="1" transform="matrix(1 -8.74228e-08 -8.74228e-08 -1 912 1.54688)" fill="white"/>
<rect opacity="0.5" width="1" height="1" transform="matrix(1 -8.74228e-08 -8.74228e-08 -1 806 1.54688)" fill="white"/>
<rect opacity="0.5" width="1" height="1" transform="matrix(1 -8.74228e-08 -8.74228e-08 -1 872 1.54688)" fill="white"/>
<rect opacity="0.5" width="1" height="1" transform="matrix(1 -8.74228e-08 -8.74228e-08 -1 826 1.54688)" fill="white"/>
<rect opacity="0.5" width="1" height="1" transform="matrix(1 -8.74228e-08 -8.74228e-08 -1 892 1.54688)" fill="white"/>
<rect opacity="0.5" width="1" height="1" transform="matrix(1 -8.74228e-08 -8.74228e-08 -1 844 1.54688)" fill="white"/>
<rect opacity="0.5" width="1" height="1" transform="matrix(1 -8.74228e-08 -8.74228e-08 -1 910 1.54688)" fill="white"/>
<rect opacity="0.5" width="1" height="1" transform="matrix(1 -8.74228e-08 -8.74228e-08 -1 804 1.54688)" fill="white"/>
<rect opacity="0.5" width="1" height="1" transform="matrix(1 -8.74228e-08 -8.74228e-08 -1 870 1.54688)" fill="white"/>
<rect opacity="0.5" width="1" height="1" transform="matrix(1 -8.74228e-08 -8.74228e-08 -1 824 1.54688)" fill="white"/>
<rect opacity="0.5" width="1" height="1" transform="matrix(1 -8.74228e-08 -8.74228e-08 -1 890 1.54688)" fill="white"/>
<rect opacity="0.5" width="1" height="1" transform="matrix(1 -8.74228e-08 -8.74228e-08 -1 842 1.54688)" fill="white"/>
<rect opacity="0.5" width="1" height="1" transform="matrix(1 -8.74228e-08 -8.74228e-08 -1 908 1.54688)" fill="white"/>
<rect opacity="0.5" width="1" height="1" transform="matrix(1 -8.74228e-08 -8.74228e-08 -1 802 1.54688)" fill="white"/>
<rect opacity="0.5" width="1" height="1" transform="matrix(1 -8.74228e-08 -8.74228e-08 -1 868 1.54688)" fill="white"/>
<rect opacity="0.5" width="1" height="1" transform="matrix(1 -8.74228e-08 -8.74228e-08 -1 822 1.54688)" fill="white"/>
<rect opacity="0.5" width="1" height="1" transform="matrix(1 -8.74228e-08 -8.74228e-08 -1 888 1.54688)" fill="white"/>
<rect opacity="0.5" width="1" height="1" transform="matrix(1 -8.74228e-08 -8.74228e-08 -1 840 1.54688)" fill="white"/>
<rect opacity="0.5" width="1" height="1" transform="matrix(1 -8.74228e-08 -8.74228e-08 -1 906 1.54688)" fill="white"/>
<rect opacity="0.5" width="1" height="1" transform="matrix(1 -8.74228e-08 -8.74228e-08 -1 800 1.54688)" fill="white"/>
<rect opacity="0.5" width="1" height="1" transform="matrix(1 -8.74228e-08 -8.74228e-08 -1 866 1.54688)" fill="white"/>
<rect opacity="0.5" width="1" height="1" transform="matrix(1 -8.74228e-08 -8.74228e-08 -1 820 1.54688)" fill="white"/>
<rect opacity="0.5" width="1" height="1" transform="matrix(1 -8.74228e-08 -8.74228e-08 -1 886 1.54688)" fill="white"/>
<rect opacity="0.5" width="1" height="1" transform="matrix(1 -8.74228e-08 -8.74228e-08 -1 838 1.54688)" fill="white"/>
<rect opacity="0.5" width="1" height="1" transform="matrix(1 -8.74228e-08 -8.74228e-08 -1 904 1.54688)" fill="white"/>
<rect opacity="0.5" width="1" height="1" transform="matrix(1 -8.74228e-08 -8.74228e-08 -1 798 1.54688)" fill="white"/>
<rect opacity="0.5" width="1" height="1" transform="matrix(1 -8.74228e-08 -8.74228e-08 -1 864 1.54688)" fill="white"/>
<rect opacity="0.5" width="1" height="1" transform="matrix(1 -8.74228e-08 -8.74228e-08 -1 818 1.54688)" fill="white"/>
<rect opacity="0.5" width="1" height="1" transform="matrix(1 -8.74228e-08 -8.74228e-08 -1 884 1.54688)" fill="white"/>
<rect opacity="0.5" width="1" height="1" transform="matrix(1 -8.74228e-08 -8.74228e-08 -1 988 1.54688)" fill="white"/>
<rect opacity="0.5" width="1" height="1" transform="matrix(1 -8.74228e-08 -8.74228e-08 -1 1054 1.54688)" fill="white"/>
<rect opacity="0.5" width="1" height="1" transform="matrix(1 -8.74228e-08 -8.74228e-08 -1 1078 1.54688)" fill="white"/>
<rect opacity="0.5" width="1" height="1" transform="matrix(1 -8.74228e-08 -8.74228e-08 -1 1102 1.54688)" fill="white"/>
<rect opacity="0.5" width="1" height="1" transform="matrix(1 -8.74228e-08 -8.74228e-08 -1 1108 1.54688)" fill="white"/>
<rect opacity="0.5" width="1" height="1" transform="matrix(1 -8.74228e-08 -8.74228e-08 -1 948 1.54688)" fill="white"/>
<rect opacity="0.5" width="1" height="1" transform="matrix(1 -8.74228e-08 -8.74228e-08 -1 1014 1.54688)" fill="white"/>
<rect opacity="0.5" width="1" height="1" transform="matrix(1 -8.74228e-08 -8.74228e-08 -1 968 1.54688)" fill="white"/>
<rect opacity="0.5" width="1" height="1" transform="matrix(1 -8.74228e-08 -8.74228e-08 -1 1034 1.54688)" fill="white"/>
<rect opacity="0.5" width="1" height="1" transform="matrix(1 -8.74228e-08 -8.74228e-08 -1 1058 1.54688)" fill="white"/>
<rect opacity="0.5" width="1" height="1" transform="matrix(1 -8.74228e-08 -8.74228e-08 -1 1082 1.54688)" fill="white"/>
<rect opacity="0.5" width="1" height="1" transform="matrix(1 -8.74228e-08 -8.74228e-08 -1 928 1.54688)" fill="white"/>
<rect opacity="0.5" width="1" height="1" transform="matrix(1 -8.74228e-08 -8.74228e-08 -1 994 1.54688)" fill="white"/>
<rect opacity="0.5" width="1" height="1" transform="matrix(1 -8.74228e-08 -8.74228e-08 -1 986 1.54688)" fill="white"/>
<rect opacity="0.5" width="1" height="1" transform="matrix(1 -8.74228e-08 -8.74228e-08 -1 1052 1.54688)" fill="white"/>
<rect opacity="0.5" width="1" height="1" transform="matrix(1 -8.74228e-08 -8.74228e-08 -1 1076 1.54688)" fill="white"/>
<rect opacity="0.5" width="1" height="1" transform="matrix(1 -8.74228e-08 -8.74228e-08 -1 1100 1.54688)" fill="white"/>
<rect opacity="0.5" width="1" height="1" transform="matrix(1 -8.74228e-08 -8.74228e-08 -1 1106 1.54688)" fill="white"/>
<rect opacity="0.5" width="1" height="1" transform="matrix(1 -8.74228e-08 -8.74228e-08 -1 946 1.54688)" fill="white"/>
<rect opacity="0.5" width="1" height="1" transform="matrix(1 -8.74228e-08 -8.74228e-08 -1 1012 1.54688)" fill="white"/>
<rect opacity="0.5" width="1" height="1" transform="matrix(1 -8.74228e-08 -8.74228e-08 -1 966 1.54688)" fill="white"/>
<rect opacity="0.5" width="1" height="1" transform="matrix(1 -8.74228e-08 -8.74228e-08 -1 1032 1.54688)" fill="white"/>
<rect opacity="0.5" width="1" height="1" transform="matrix(1 -8.74228e-08 -8.74228e-08 -1 1056 1.54688)" fill="white"/>
<rect opacity="0.5" width="1" height="1" transform="matrix(1 -8.74228e-08 -8.74228e-08 -1 1080 1.54688)" fill="white"/>
<rect opacity="0.5" width="1" height="1" transform="matrix(1 -8.74228e-08 -8.74228e-08 -1 926 1.54688)" fill="white"/>
<rect opacity="0.5" width="1" height="1" transform="matrix(1 -8.74228e-08 -8.74228e-08 -1 992 1.54688)" fill="white"/>
<rect opacity="0.5" width="1" height="1" transform="matrix(1 -8.74228e-08 -8.74228e-08 -1 984 1.54688)" fill="white"/>
<rect opacity="0.5" width="1" height="1" transform="matrix(1 -8.74228e-08 -8.74228e-08 -1 1050 1.54688)" fill="white"/>
<rect opacity="0.5" width="1" height="1" transform="matrix(1 -8.74228e-08 -8.74228e-08 -1 1074 1.54688)" fill="white"/>
<rect opacity="0.5" width="1" height="1" transform="matrix(1 -8.74228e-08 -8.74228e-08 -1 1098 1.54688)" fill="white"/>
<rect opacity="0.5" width="1" height="1" transform="matrix(1 -8.74228e-08 -8.74228e-08 -1 1104 1.54688)" fill="white"/>
<rect opacity="0.5" width="1" height="1" transform="matrix(1 -8.74228e-08 -8.74228e-08 -1 944 1.54688)" fill="white"/>
<rect opacity="0.5" width="1" height="1" transform="matrix(1 -8.74228e-08 -8.74228e-08 -1 1010 1.54688)" fill="white"/>
<rect opacity="0.5" width="1" height="1" transform="matrix(1 -8.74228e-08 -8.74228e-08 -1 964 1.54688)" fill="white"/>
<rect opacity="0.5" width="1" height="1" transform="matrix(1 -8.74228e-08 -8.74228e-08 -1 1030 1.54688)" fill="white"/>
<rect opacity="0.5" width="1" height="1" transform="matrix(1 -8.74228e-08 -8.74228e-08 -1 924 1.54688)" fill="white"/>
<rect opacity="0.5" width="1" height="1" transform="matrix(1 -8.74228e-08 -8.74228e-08 -1 990 1.54688)" fill="white"/>
<rect opacity="0.5" width="1" height="1" transform="matrix(1 -8.74228e-08 -8.74228e-08 -1 982 1.54688)" fill="white"/>
<rect opacity="0.5" width="1" height="1" transform="matrix(1 -8.74228e-08 -8.74228e-08 -1 1048 1.54688)" fill="white"/>
<rect opacity="0.5" width="1" height="1" transform="matrix(1 -8.74228e-08 -8.74228e-08 -1 1072 1.54688)" fill="white"/>
<rect opacity="0.5" width="1" height="1" transform="matrix(1 -8.74228e-08 -8.74228e-08 -1 1096 1.54688)" fill="white"/>
<rect opacity="0.5" width="1" height="1" transform="matrix(1 -8.74228e-08 -8.74228e-08 -1 942 1.54688)" fill="white"/>
<rect opacity="0.5" width="1" height="1" transform="matrix(1 -8.74228e-08 -8.74228e-08 -1 1008 1.54688)" fill="white"/>
<rect opacity="0.5" width="1" height="1" transform="matrix(1 -8.74228e-08 -8.74228e-08 -1 962 1.54688)" fill="white"/>
<rect opacity="0.5" width="1" height="1" transform="matrix(1 -8.74228e-08 -8.74228e-08 -1 1028 1.54688)" fill="white"/>
<rect opacity="0.5" width="1" height="1" transform="matrix(1 -8.74228e-08 -8.74228e-08 -1 980 1.54688)" fill="white"/>
<rect opacity="0.5" width="1" height="1" transform="matrix(1 -8.74228e-08 -8.74228e-08 -1 1046 1.54688)" fill="white"/>
<rect opacity="0.5" width="1" height="1" transform="matrix(1 -8.74228e-08 -8.74228e-08 -1 1070 1.54688)" fill="white"/>
<rect opacity="0.5" width="1" height="1" transform="matrix(1 -8.74228e-08 -8.74228e-08 -1 1094 1.54688)" fill="white"/>
<rect opacity="0.5" width="1" height="1" transform="matrix(1 -8.74228e-08 -8.74228e-08 -1 940 1.54688)" fill="white"/>
<rect opacity="0.5" width="1" height="1" transform="matrix(1 -8.74228e-08 -8.74228e-08 -1 1006 1.54688)" fill="white"/>
<rect opacity="0.5" width="1" height="1" transform="matrix(1 -8.74228e-08 -8.74228e-08 -1 960 1.54688)" fill="white"/>
<rect opacity="0.5" width="1" height="1" transform="matrix(1 -8.74228e-08 -8.74228e-08 -1 1026 1.54688)" fill="white"/>
<rect opacity="0.5" width="1" height="1" transform="matrix(1 -8.74228e-08 -8.74228e-08 -1 978 1.54688)" fill="white"/>
<rect opacity="0.5" width="1" height="1" transform="matrix(1 -8.74228e-08 -8.74228e-08 -1 1044 1.54688)" fill="white"/>
<rect opacity="0.5" width="1" height="1" transform="matrix(1 -8.74228e-08 -8.74228e-08 -1 1068 1.54688)" fill="white"/>
<rect opacity="0.5" width="1" height="1" transform="matrix(1 -8.74228e-08 -8.74228e-08 -1 1092 1.54688)" fill="white"/>
<rect opacity="0.5" width="1" height="1" transform="matrix(1 -8.74228e-08 -8.74228e-08 -1 938 1.54688)" fill="white"/>
<rect opacity="0.5" width="1" height="1" transform="matrix(1 -8.74228e-08 -8.74228e-08 -1 1004 1.54688)" fill="white"/>
<rect opacity="0.5" width="1" height="1" transform="matrix(1 -8.74228e-08 -8.74228e-08 -1 958 1.54688)" fill="white"/>
<rect opacity="0.5" width="1" height="1" transform="matrix(1 -8.74228e-08 -8.74228e-08 -1 1024 1.54688)" fill="white"/>
<rect opacity="0.5" width="1" height="1" transform="matrix(1 -8.74228e-08 -8.74228e-08 -1 976 1.54688)" fill="white"/>
<rect opacity="0.5" width="1" height="1" transform="matrix(1 -8.74228e-08 -8.74228e-08 -1 1042 1.54688)" fill="white"/>
<rect opacity="0.5" width="1" height="1" transform="matrix(1 -8.74228e-08 -8.74228e-08 -1 1066 1.54688)" fill="white"/>
<rect opacity="0.5" width="1" height="1" transform="matrix(1 -8.74228e-08 -8.74228e-08 -1 1090 1.54688)" fill="white"/>
<rect opacity="0.5" width="1" height="1" transform="matrix(1 -8.74228e-08 -8.74228e-08 -1 936 1.54688)" fill="white"/>
<rect opacity="0.5" width="1" height="1" transform="matrix(1 -8.74228e-08 -8.74228e-08 -1 1002 1.54688)" fill="white"/>
<rect opacity="0.5" width="1" height="1" transform="matrix(1 -8.74228e-08 -8.74228e-08 -1 956 1.54688)" fill="white"/>
<rect opacity="0.5" width="1" height="1" transform="matrix(1 -8.74228e-08 -8.74228e-08 -1 1022 1.54688)" fill="white"/>
<rect opacity="0.5" width="1" height="1" transform="matrix(1 -8.74228e-08 -8.74228e-08 -1 974 1.54688)" fill="white"/>
<rect opacity="0.5" width="1" height="1" transform="matrix(1 -8.74228e-08 -8.74228e-08 -1 1040 1.54688)" fill="white"/>
<rect opacity="0.5" width="1" height="1" transform="matrix(1 -8.74228e-08 -8.74228e-08 -1 1064 1.54688)" fill="white"/>
<rect opacity="0.5" width="1" height="1" transform="matrix(1 -8.74228e-08 -8.74228e-08 -1 1088 1.54688)" fill="white"/>
<rect opacity="0.5" width="1" height="1" transform="matrix(1 -8.74228e-08 -8.74228e-08 -1 934 1.54688)" fill="white"/>
<rect opacity="0.5" width="1" height="1" transform="matrix(1 -8.74228e-08 -8.74228e-08 -1 1000 1.54688)" fill="white"/>
<rect opacity="0.5" width="1" height="1" transform="matrix(1 -8.74228e-08 -8.74228e-08 -1 954 1.54688)" fill="white"/>
<rect opacity="0.5" width="1" height="1" transform="matrix(1 -8.74228e-08 -8.74228e-08 -1 1020 1.54688)" fill="white"/>
<rect opacity="0.5" width="1" height="1" transform="matrix(1 -8.74228e-08 -8.74228e-08 -1 972 1.54688)" fill="white"/>
<rect opacity="0.5" width="1" height="1" transform="matrix(1 -8.74228e-08 -8.74228e-08 -1 1038 1.54688)" fill="white"/>
<rect opacity="0.5" width="1" height="1" transform="matrix(1 -8.74228e-08 -8.74228e-08 -1 1062 1.54688)" fill="white"/>
<rect opacity="0.5" width="1" height="1" transform="matrix(1 -8.74228e-08 -8.74228e-08 -1 1086 1.54688)" fill="white"/>
<rect opacity="0.5" width="1" height="1" transform="matrix(1 -8.74228e-08 -8.74228e-08 -1 932 1.54688)" fill="white"/>
<rect opacity="0.5" width="1" height="1" transform="matrix(1 -8.74228e-08 -8.74228e-08 -1 998 1.54688)" fill="white"/>
<rect opacity="0.5" width="1" height="1" transform="matrix(1 -8.74228e-08 -8.74228e-08 -1 952 1.54688)" fill="white"/>
<rect opacity="0.5" width="1" height="1" transform="matrix(1 -8.74228e-08 -8.74228e-08 -1 1018 1.54688)" fill="white"/>
<rect opacity="0.5" width="1" height="1" transform="matrix(1 -8.74228e-08 -8.74228e-08 -1 970 1.54688)" fill="white"/>
<rect opacity="0.5" width="1" height="1" transform="matrix(1 -8.74228e-08 -8.74228e-08 -1 1036 1.54688)" fill="white"/>
<rect opacity="0.5" width="1" height="1" transform="matrix(1 -8.74228e-08 -8.74228e-08 -1 1060 1.54688)" fill="white"/>
<rect opacity="0.5" width="1" height="1" transform="matrix(1 -8.74228e-08 -8.74228e-08 -1 1084 1.54688)" fill="white"/>
<rect opacity="0.5" width="1" height="1" transform="matrix(1 -8.74228e-08 -8.74228e-08 -1 930 1.54688)" fill="white"/>
<rect opacity="0.5" width="1" height="1" transform="matrix(1 -8.74228e-08 -8.74228e-08 -1 996 1.54688)" fill="white"/>
<rect opacity="0.5" width="1" height="1" transform="matrix(1 -8.74228e-08 -8.74228e-08 -1 950 1.54688)" fill="white"/>
<rect opacity="0.5" width="1" height="1" transform="matrix(1 -8.74228e-08 -8.74228e-08 -1 1016 1.54688)" fill="white"/>
</svg>
