<svg width="10" height="10" viewBox="0 0 10 10" fill="none" xmlns="http://www.w3.org/2000/svg">
<path fill-rule="evenodd" clip-rule="evenodd" d="M1.33436 0.330127C1.09992 0.0956868 0.719812 0.0956867 0.485372 0.330127C0.250931 0.564568 0.250931 0.944671 0.485372 1.17911L4.15107 4.84481L0.17583 8.82005C-0.0586101 9.05449 -0.0586102 9.4346 0.17583 9.66904C0.410271 9.90348 0.790374 9.90348 1.02481 9.66904L5.00006 5.6938L8.97521 9.66895C9.20965 9.90339 9.58976 9.90339 9.8242 9.66895C10.0586 9.43451 10.0586 9.05441 9.8242 8.81997L5.84904 4.84481L9.51466 1.1792C9.7491 0.944755 9.7491 0.564652 9.51466 0.330212C9.28022 0.0957711 8.90011 0.0957711 8.66567 0.330212L5.00006 3.99583L1.33436 0.330127Z" fill="#00A3FF"/>
</svg>
